<?xml version="1.0" standalone="no"?><!DOCTYPE svg PUBLIC "-//W3C//DTD SVG 1.1//EN" "http://www.w3.org/Graphics/SVG/1.1/DTD/svg11.dtd"><svg t="1585298045418" class="icon" viewBox="0 0 1024 1024" version="1.1" xmlns="http://www.w3.org/2000/svg" p-id="1937" xmlns:xlink="http://www.w3.org/1999/xlink" width="48" height="48"><defs><style type="text/css"></style></defs><path d="M722 128.4c21 0.1 41.5 6.1 59.2 17.5 17.7 11.3 31.8 27.4 40.7 46.5l0.1 0.3 0.1 0.3L899 352.3c6.6 13.8 10.2 29.1 10.4 44.4v6c0.3 16.4-2.6 32.5-8.6 47.8s-14.8 29.1-26.2 40.9c-11.4 11.8-24.8 21.2-39.9 27.8-14.9 6.5-30.7 10-46.9 10.4-38.6-0.4-74.7-19.4-96.8-51.1l-41.2-59-40.8 59.1c-22 31.9-58.3 50.9-97 50.9s-75-19-97-50.9l-40.6-58.7-41.4 58.2c-4.8 6.7-10.2 13-16.1 18.6-22.2 21.1-51.4 32.8-82.1 32.8-3.1 0-6.2-0.1-9.3-0.4-31.3-4.3-59.8-19.7-80.4-43.7-20.8-24.2-31.9-55.1-31.2-87.1v-1c0-15.6 3.6-31.4 10.4-45.4L201 193l0.1-0.3 0.1-0.3c8.9-19.1 23-35.2 40.7-46.5 17.7-11.3 38.2-17.4 59.2-17.5H722m0.1-50h-421c-62.3 0.3-118.8 36.4-145.1 92.9L79.3 330.1C69.2 351 64 374 64 397.2c-2 91.6 65.5 170 156.4 181.6 4.9 0.4 9.7 0.6 14.6 0.6 43.2 0 85-16.6 116.6-46.6 8.3-7.9 15.7-16.5 22.4-25.9 31.4 45.4 83 72.5 138.2 72.5 55.2 0 106.8-27.1 138.2-72.5 31.5 45.2 83.1 72.2 138.2 72.5 46.3-0.9 90.3-20.1 122.5-53.5 32.1-33.4 49.7-78.1 48.8-124.4v-5.2c-0.2-22.8-5.4-45.3-15.3-65.8l-77-159.4c-26.7-56.3-83.2-92.5-145.5-92.7z" p-id="1938" fill="#ff8198"></path><path d="M650.2 640.6c38.3 31.3 86.7 49.2 137.3 49.5h2.3c10 0 32.8-1.1 60.1-9V783.3c0.5 29.3-10.5 57.1-30.9 78.2-20.3 21-47.5 32.9-76.7 33.5H281.6c-29.1-0.7-56.3-12.5-76.6-33.5-20.4-21.1-31.4-48.8-30.9-78.1V681.2c13.5 4.1 27.4 6.9 41.4 8.3h0.6c6.3 0.5 12.6 0.8 18.9 0.8 51 0 99.7-17.5 138.8-49.6 38.5 31.6 87.2 49.5 138.3 49.5 50.9 0 99.6-17.9 138.1-49.6m-0.1-72.9c-31.4 45.4-83 72.5-138.2 72.5s-106.8-27.1-138.2-72.5a173.6 173.6 0 0 1-22.4 26c-31.6 30-73.4 46.6-116.6 46.6-4.8 0-9.7-0.2-14.6-0.6-36-3.5-69.9-18.8-96.3-43.6v186.7c-1.3 88.1 68.9 160.7 157 162.4h461.8c88.2-1.6 158.5-74.3 157.1-162.5V597.2c-44 41.1-100.3 43-110.1 43h-1.5c-54.9-0.3-106.5-27.3-138-72.5z" p-id="1939" fill="#ff8198"></path></svg>