<?xml version="1.0" standalone="no"?><!DOCTYPE svg PUBLIC "-//W3C//DTD SVG 1.1//EN" "http://www.w3.org/Graphics/SVG/1.1/DTD/svg11.dtd"><svg t="1585297991076" class="icon" viewBox="0 0 1024 1024" version="1.1" xmlns="http://www.w3.org/2000/svg" p-id="1237" xmlns:xlink="http://www.w3.org/1999/xlink" width="48" height="48"><defs><style type="text/css"></style></defs><path d="M192.8 868.7c-3.8 0-7.7-0.7-11.4-2.3-10.7-4.4-17.6-14.4-17.6-25.6V724.6h-46.4C52.7 724.6 0.1 676.4 0.1 617.1V236.3c0-59.3 52.6-107.5 117.3-107.5h622.1c64.7 0 117.3 48.2 117.3 107.5v380.8c0 59.3-52.6 107.5-117.3 107.5H346.8L213.7 860c-5.6 5.7-13.2 8.7-20.9 8.7z m-75.4-704.1c-45 0-81.5 32.2-81.5 71.7v380.8c0 39.5 36.6 71.7 81.5 71.7h64.3c9.9 0 17.9 8 17.9 17.9v116.5l126.9-129.1c3.4-3.4 8-5.3 12.8-5.3h400.2c45 0 81.5-32.2 81.5-71.7V236.3c0-39.5-36.6-71.7-81.5-71.7H117.4z" fill="#ff8198" p-id="1238"></path><path d="M884 938.7c-7 0-13.7-2.8-18.7-8.1L774 833.3H502.3c-13.5 0-26.5-2.9-38.6-8.7-8.9-4.2-12.7-14.9-8.5-23.9 4.3-9 15-12.7 23.9-8.5 7.3 3.5 15.1 5.2 23.3 5.2h279.5c4.9 0 9.7 2.1 13.1 5.6l79.1 84.2v-72c0-9.9 8-17.9 17.9-17.9h44.9c28.4 0 51.5-21.4 51.5-47.6V471.6c0-14.9-7.8-29.2-20.9-38.2-8.1-5.6-10.2-16.8-4.6-24.9 5.6-8.2 16.8-10.2 24.9-4.6 22.8 15.7 36.4 41 36.4 67.7V750c0 46-39.2 83.4-87.4 83.4h-27v80.2c0 10.3-6.3 19.4-16 23.3-3.3 1.2-6.5 1.8-9.8 1.8zM202.7 402c-9.8 0-17.8-7.9-17.9-17.7-0.1-9.9 7.9-18 17.7-18.1l441.7-4h0.2c9.8 0 17.8 7.9 17.9 17.7 0.1 9.9-7.9 18-17.7 18.1l-441.7 4h-0.2zM473.3 522.8H202.7c-9.9 0-17.9-8-17.9-17.9s8-17.9 17.9-17.9h270.6c9.9 0 17.9 8 17.9 17.9s-8 17.9-17.9 17.9z" fill="#ff8198" p-id="1239"></path></svg>